<?xml version="1.0" encoding="utf-8"?>
<!-- Generator: Adobe Illustrator 16.0.0, SVG Export Plug-In . SVG Version: 6.00 Build 0)  -->
<!DOCTYPE svg PUBLIC "-//W3C//DTD SVG 1.0//EN" "http://www.w3.org/TR/2001/REC-SVG-20010904/DTD/svg10.dtd">
<svg version="1.0" id="Layer_1" xmlns="http://www.w3.org/2000/svg" xmlns:xlink="http://www.w3.org/1999/xlink" x="0px" y="0px"
	 width="900px" height="900px" viewBox="0 0 900 900" enable-background="new 0 0 900 900" xml:space="preserve">
<g>
	<path fill-rule="evenodd" clip-rule="evenodd" fill="#010101" d="M16.594,451.443c0-239.704,194.315-434.016,434.017-434.016
		c239.703,0,434.017,194.313,434.017,434.016c0,239.702-194.314,434.019-434.017,434.019
		C210.909,885.462,16.594,691.146,16.594,451.443z"/>
	<path fill-rule="evenodd" clip-rule="evenodd" fill="#FFFFFF" d="M655.862,224.624c54.407,1.075,96.64,8.16,137.185,24.315
		c4.013,1.601,4.795,3.23,4.146,7.572C787,324.732,756.359,383.675,715.528,438.096c-2.242,2.99-3.372,3.002-5.66,0.241
		c-25.545-30.835-54.452-58.244-85.573-83.352c-2.137-1.727-3.018-3.82-3.375-6.211c-5.905-39.292-15.69-77.596-29.156-114.96
		c-1.257-3.483-0.985-4.561,3.248-5.083C618.872,225.8,642.77,224.108,655.862,224.624z"/>
	<path fill-rule="evenodd" clip-rule="evenodd" fill="#FFFFFF" d="M243.933,225.672c-54.407,1.074-96.639,8.161-137.184,24.315
		c-4.013,1.6-4.794,3.23-4.146,7.572c10.192,68.221,40.833,127.164,81.663,181.584c2.245,2.991,3.373,3.002,5.661,0.243
		c25.545-30.837,54.452-58.244,85.574-83.353c2.137-1.726,3.016-3.82,3.375-6.212c5.907-39.291,15.69-77.595,29.156-114.962
		c1.256-3.483,0.985-4.561-3.249-5.08C280.923,226.845,257.026,225.152,243.933,225.672z"/>
	<path fill-rule="evenodd" clip-rule="evenodd" fill="#FFFFFF" d="M501.914,236.328c-3.204-0.288-3.004-3.051-3.632-4.961
		c-6.675-20.303-14.268-40.246-23.505-59.53c-6.334-13.212-13.035-26.241-20.775-38.703c-3.292-5.301-3.561-5.322-6.88,0.157
		c-18.536,30.592-32.839,63.118-43.715,97.142c-1.712,5.357-3.59,6.277-8.925,4.584c-20.164-6.402-40.842-10.833-61.657-14.528
		c-4.095-0.729-4.411-1.977-2.933-5.453c23.832-56.087,55.316-106.953,100.922-148.19c5.432-4.913,11.358-9.275,16.816-14.162
		c2.406-2.152,3.843-1.633,6.138,0.155c25.903,20.203,47.979,44.046,67.075,70.66c20.376,28.392,36.792,59.005,50.405,91.17
		c1.637,3.871,1.343,5.056-3.046,5.834c-21.617,3.838-43.012,8.703-64.025,15.135C503.405,235.876,502.631,236.109,501.914,236.328z
		"/>
	<path fill-rule="evenodd" clip-rule="evenodd" fill="#FFFFFF" d="M373.42,451.61c-0.053-43.572,33.766-77.391,77.34-77.345
		c43.252,0.044,77.001,33.788,77.041,77.032c0.042,43.584-33.752,77.378-77.334,77.339
		C407.215,528.598,373.469,494.859,373.42,451.61z"/>
	<path fill="#FFFFFF" d="M330.011,688.209c0.625,1.026,1.23,2.065,1.845,3.101c0.065,0.4,0.048,0.836,0.204,1.2
		c26.263,61.127,62.065,115.258,114.77,157.093c2.988,2.369,4.599,2.315,7.578-0.009c32.491-25.393,58.614-56.427,80.491-91.11
		c12.804-20.304,24.435-41.304,33.033-63.825c0.914-1.784,1.704-3.649,2.768-5.342c2.853-4.531,1.994-6.16-3.64-7.157
		c-38.092-6.742-75.132-17.376-111.183-31.395c-3.663-1.424-6.903-1.438-10.558-0.015c-36.432,14.194-73.885,24.834-112.398,31.606
		C328.4,683.153,327.878,684.705,330.011,688.209z"/>
	<path fill-rule="evenodd" clip-rule="evenodd" fill="#FFFFFF" d="M284.867,471.317c-1.165-22.744-0.072-44.258,1.295-65.736
		c0.889-13.97,2.863-27.867,4.204-41.81c0.246-2.576,0.77-4.692,2.928-6.346c28.306-21.683,57.977-41.255,89.48-58.002
		c0.333-0.176,0.77-0.152,1.986-0.37c-1.427,8.318-2.766,16.365-4.194,24.396c-4.161,23.408-7.222,46.953-8.223,70.71
		c-0.33,7.811-2.759,13.12-9.825,17.713c-26.279,17.078-51.077,36.215-74.458,57.135
		C287.345,469.646,286.503,470.145,284.867,471.317z"/>
	<path fill-rule="evenodd" clip-rule="evenodd" fill="#FFFFFF" d="M616.286,471.219c-8.749-7.234-16.842-13.866-24.866-20.575
		c-18.121-15.15-37.303-28.862-56.971-41.898c-2.95-1.954-4.407-4.011-4.68-7.727c-2.147-29.356-5.312-58.599-10.653-87.579
		c-0.866-4.695-2.774-9.263-2.249-14.75c13.338,6.527,25.621,14.054,37.796,21.71c17.217,10.825,34.013,22.279,50.163,34.683
		c3.84,2.949,5.658,5.904,6.307,10.876c4.272,32.723,5.938,65.56,5.512,98.53C616.617,466.449,616.439,468.407,616.286,471.219z"/>
	<path fill-rule="evenodd" clip-rule="evenodd" fill="#FFFFFF" d="M351.587,584.781c11.765-4.408,23.318-8.712,34.855-13.063
		c20.374-7.683,40.063-16.92,59.633-26.42c2.638-1.285,4.868-2.209,7.915-0.681c30.384,15.23,61.605,28.479,93.881,39.193
		c0.528,0.173,0.941,0.697,2.022,1.534c-5.259,3.209-10.152,6.315-15.159,9.224c-26.063,15.146-53.08,28.361-80.911,39.93
		c-1.93,0.803-3.624,1.224-5.772,0.328c-32.929-13.685-64.689-29.655-95.048-48.386
		C352.535,586.151,352.247,585.569,351.587,584.781z"/>
	<path fill-rule="evenodd" clip-rule="evenodd" fill="#FFFFFF" d="M277.187,370.653c-0.98,11.774-1.906,22.273-2.716,32.782
		c-1.864,24.146-3.114,48.319-1.237,72.52c0.369,4.761-1.079,8.041-4.593,11.103c-6.133,5.343-12.11,10.894-17.331,17.174
		c-1.733,2.086-3.157,2.51-5.445,0.402c-17.254-15.89-32.824-33.34-48.062-51.116c-1.688-1.97-0.838-3.072,0.457-4.621
		C221.802,420.744,247.651,394.921,277.187,370.653z"/>
	<path fill-rule="evenodd" clip-rule="evenodd" fill="#FFFFFF" d="M624.713,371.292c12.505,9.909,23.935,20.516,35.213,31.27
		c15.188,14.48,29.22,30.051,42.813,46.024c1.772,2.081,2.058,3.32,0.142,5.573c-14.387,16.904-29.433,33.18-45.341,48.675
		c-3.873,3.773-5.97,3.564-9.487-0.516c-5.163-5.99-11.154-11.277-16.933-16.714c-2.229-2.099-3.407-4.242-3.14-7.435
		c1.661-19.922,0.946-39.863-0.147-59.772c-0.703-12.777-2.03-25.518-3.116-38.272C624.481,377.356,623.825,374.602,624.713,371.292
		z"/>
	<path fill-rule="evenodd" clip-rule="evenodd" fill="#FFFFFF" d="M606.662,341.085c-13.072-9.004-25.497-17.83-38.195-26.236
		c-16.458-10.895-33.576-20.717-51.076-29.849c-3.27-1.708-5.275-3.69-6.114-7.593c-1.786-8.323-4.191-16.518-6.621-24.683
		c-0.986-3.319-0.088-4.551,3.17-5.513c21.638-6.401,43.639-11.192,65.776-15.451c3.348-0.642,4.568,0.373,5.709,3.468
		c12.457,33.825,21.446,68.558,27.663,104.033C607.04,339.631,606.848,340.049,606.662,341.085z"/>
	<path fill-rule="evenodd" clip-rule="evenodd" fill="#FFFFFF" d="M294.046,340.894c3.492-20.737,7.869-40.715,13.368-60.449
		c4.198-15.072,9.078-29.917,14.299-44.664c1.255-3.549,2.563-4.629,6.541-3.874c21.751,4.146,43.321,8.958,64.589,15.168
		c3.947,1.151,4.668,2.456,3.508,6.265c-2.537,8.341-4.675,16.809-6.758,25.279c-0.579,2.358-1.466,4.098-3.661,5.226
		c-31.559,16.215-61.163,35.549-89.873,56.313C295.751,340.381,295.321,340.438,294.046,340.894z"/>
	<path fill="#FFFFFF" d="M594.263,674.154c28.529,3.385,57.077,5.157,85.83,3.653c37.834-1.979,74.553-8.947,110.004-22.524
		c5.644-2.158,9.146-4.224,6.689-11.108c-1.34-3.758-1.275-7.999-2.042-11.986c-6.97-36.235-19.983-70.305-37.427-102.696
		c-10.316-19.154-21.449-37.85-35.081-54.916c-2.977-4.318-5.952-8.64-9.07-13.168c-1.105,1-1.929,1.588-2.563,2.337
		c-14.855,17.522-30.313,34.484-47.271,50.01c-1.855,1.701-1.697,2.713-0.149,4.399c12.635,13.764,23.98,28.598,35.677,43.145
		c10.11,15.245,20.416,30.359,29.263,46.416c2.452,4.453,1.625,5.871-3.262,6.029c-14.876,0.48-29.7-0.489-44.506-1.585
		c-21.916-1.624-43.57-5.143-65.029-9.843c-2.482-0.544-3.812-0.106-4.396,2.533c-4.888,22.051-11.75,43.516-19.321,64.763
		C590.682,672.218,590.278,673.683,594.263,674.154z"/>
	<path fill="#FFFFFF" d="M107.774,653.913c34.455,13.852,70.357,21.122,107.296,23.629c30.555,2.074,60.96,0.34,91.323-3.346
		c4.544-0.552,4.152-2.044,3.037-5.193c-7.395-20.88-14.087-41.978-18.964-63.604c-0.621-2.755-1.604-3.752-4.559-3.096
		c-29.037,6.464-58.437,10.172-88.163,11.279c-8.839,0.328-17.692,0.832-27.027-0.737c9.128-18.684,20.685-34.923,31.65-51.52
		c11.685-14.583,23.029-29.449,35.719-43.196c2.052-2.22,1.001-3.146-0.674-4.793c-8.266-8.121-16.535-16.257-24.488-24.686
		c-8.332-8.831-16.306-17.999-24.786-27.408c-3.244,4.699-6.232,9.018-9.215,13.339c-0.001,0-0.003,0.004-0.005,0.004
		c-0.304,0.262-0.675,0.473-0.905,0.79c-37.584,51.957-64.703,108.412-74.319,172.452
		C103.107,651.745,104.916,652.764,107.774,653.913z"/>
	<path fill="#FFFFFF" d="M520.313,659.086c17.644,4.435,35.274,8.914,53.211,12.063c2.344,0.408,4.324,0.74,5.366-2.241
		c6.03-17.248,12.18-34.451,16.2-52.32c1.255-4.668,2.272-9.416,3.847-13.971c1.125-3.262,0.116-4.101-2.97-4.844
		c-8.662-2.089-17.27-4.453-25.806-7.024c-3.022-0.905-5.235-0.419-7.853,1.22c-24.637,15.43-49.991,29.55-76.555,41.432
		c-5.828,2.608-11.583,5.387-18.465,8.602C485.425,648.982,502.676,654.617,520.313,659.086z"/>
	<path fill="#FFFFFF" d="M380.899,659.811c-17.643,4.433-35.274,8.912-53.21,12.061c-2.344,0.412-4.325,0.743-5.366-2.238
		c-6.03-17.248-12.181-34.454-16.2-52.319c-1.255-4.668-2.274-9.416-3.847-13.971c-1.125-3.263-0.116-4.101,2.969-4.844
		c8.663-2.093,17.271-4.453,25.807-7.022c3.022-0.911,5.235-0.421,7.853,1.217c24.635,15.431,49.991,29.548,76.553,41.433
		c5.83,2.605,11.584,5.387,18.465,8.601C415.787,649.708,398.536,655.343,380.899,659.811z"/>
</g>
</svg>
